<svg width="203" height="51" viewBox="0 0 203 51" fill="none" xmlns="http://www.w3.org/2000/svg">
<path d="M138.08 50.987C135.194 50.987 132.282 50.2832 129.598 48.8104C125.599 46.6077 122.727 43.0105 121.506 38.7094C120.285 34.4084 120.862 29.8858 123.143 26.0018C125.961 21.1925 131.021 18.0514 136.711 17.5952L137.006 20.997C132.484 21.3619 128.458 23.8643 126.216 27.6831C124.405 30.7721 123.948 34.3563 124.915 37.7841C125.881 41.2119 128.176 44.0662 131.356 45.8257C134.537 47.5852 138.241 48.0284 141.757 47.09C145.286 46.1516 148.225 43.9228 150.037 40.8339C152.278 37.0151 152.426 32.3621 150.426 28.4L153.593 26.9011C156.09 31.8799 155.915 37.7189 153.097 42.5152C149.916 47.9502 144.079 50.987 138.08 50.987Z" fill="#1F1E1D"/>
<path d="M184.795 51C183.265 51 181.722 50.8045 180.192 50.3874C175.75 49.2014 172.06 46.4122 169.792 42.5282C166.973 37.7189 166.799 31.8799 169.295 26.9141L172.462 28.413C170.476 32.3751 170.624 37.0151 172.851 40.8469C174.663 43.9358 177.602 46.1515 181.132 47.103C184.661 48.0414 188.352 47.5982 191.532 45.8387C194.713 44.0792 196.994 41.2249 197.974 37.7971C198.94 34.3693 198.484 30.7851 196.672 27.6961C194.431 23.8773 190.405 21.3749 185.882 21.01L186.178 17.6082C191.854 18.0644 196.927 21.2055 199.745 26.0148C202.013 29.8988 202.604 34.4084 201.383 38.7224C200.161 43.0365 197.289 46.6207 193.29 48.8234C190.646 50.2571 187.734 51 184.795 51Z" fill="#1F1E1D"/>
<path d="M139.046 36.1027L135.839 34.6951L144.911 15.2622H167.389V18.677H147.179L139.046 36.1027Z" fill="#F6A21A"/>
<path d="M180.675 34.7081L169.121 3.41477H161.766V0H171.603L183.99 33.5612L180.675 34.7081Z" fill="#51AB5B"/>
<path d="M46.2055 12.9036H50.406C52.1506 12.9036 53.4792 13.451 54.4052 14.5327C55.3312 15.6145 55.8009 17.0221 55.8009 18.7556C55.8009 19.5897 55.6667 20.3978 55.3983 21.1798C55.1299 21.9488 54.7273 22.6656 54.1905 23.3303C53.6537 23.9951 52.929 24.5164 52.0298 24.9204C51.1307 25.3114 50.1108 25.52 48.9701 25.52H43.9241L46.2055 12.9036ZM48.8761 22.8872C50.0705 22.8872 51.0233 22.4832 51.7078 21.6881C52.4056 20.8931 52.7411 19.9547 52.7411 18.8859C52.7411 17.8172 52.513 16.983 52.0433 16.3835C51.5736 15.784 50.8757 15.4842 49.9631 15.4842H48.4601L47.1315 22.8872H48.8761Z" fill="#1F1E1D"/>
<path d="M56.5525 25.4935L58.8339 12.8901H61.6656L59.3841 25.4935H56.5525Z" fill="#1F1E1D"/>
<path d="M61.5715 25.4935L63.853 12.8901H66.4833L69.8249 19.5372C70.0128 19.9152 70.1336 20.241 70.2007 20.5408C70.2141 20.2019 70.2409 19.863 70.2946 19.5111L71.5024 12.8901H74.2804L71.999 25.4935H69.5565L66.0002 18.5467C65.9197 18.3903 65.8257 18.1035 65.7049 17.6865C65.7049 18.0123 65.6781 18.299 65.6244 18.5467L64.3629 25.4935H61.5715Z" fill="#1F1E1D"/>
<path d="M80.561 12.9032H84.7615C86.5061 12.9032 87.8347 13.4506 88.7607 14.5324C89.6867 15.6142 90.1564 17.0218 90.1564 18.7552C90.1564 19.5894 90.0222 20.3974 89.7538 21.1795C89.4854 21.9484 89.0828 22.6653 88.546 23.33C88.0091 23.9947 87.2845 24.516 86.3853 24.9201C85.4862 25.3111 84.4662 25.5196 83.3255 25.5196H78.2795L80.561 12.9032ZM83.2316 22.8868C84.426 22.8868 85.3788 22.4828 86.0632 21.6878C86.7611 20.8927 87.0966 19.9543 87.0966 18.8856C87.0966 17.8168 86.8684 16.9827 86.3987 16.3831C85.929 15.7836 85.2312 15.4838 84.3186 15.4838H82.8155L81.487 22.8868H83.2316Z" fill="#1F1E1D"/>
<path d="M90.908 25.4935L93.1894 12.8901H96.021L93.7396 25.4935H90.908Z" fill="#1F1E1D"/>
<path d="M95.9272 25.4935L98.2087 12.8901H100.839L104.181 19.5372C104.369 19.9152 104.489 20.241 104.556 20.5408C104.57 20.2019 104.597 19.863 104.65 19.5111L105.858 12.8901H108.636L106.355 25.4935H103.912L100.356 18.5467C100.275 18.3903 100.181 18.1035 100.061 17.6865C100.061 18.0123 100.034 18.299 99.9801 18.5467L98.7186 25.4935H95.9272Z" fill="#1F1E1D"/>
<path d="M5.18018 36.8717H0V35.7117H2.0667C1.8654 35.0991 1.65068 34.6039 1.44938 34.252L2.76455 34.0825C3.00611 34.5257 3.22083 35.0731 3.3953 35.6987H5.18018V36.8717ZM0.335504 37.784H4.87151V38.8788H0.335504V37.784ZM0.335504 39.8433H4.87151V40.9251H0.335504V39.8433ZM0.375764 42.0199H4.68363V46.7902H3.4624V46.1645H1.597V46.9205H0.375764V42.0199ZM3.4624 43.0626H1.597V45.0958H3.4624V43.0626ZM7.30056 41.4855H5.74382V37.2106H12.4271V41.4855H10.8166V44.9655C10.8166 45.2783 10.9777 45.4477 11.2998 45.4477H11.5011C11.7292 45.4477 11.8768 45.3434 11.9439 45.1479C12.0244 44.9394 12.0513 44.3659 12.0513 43.4406C12.0513 43.3754 12.0513 43.3233 12.0513 43.2972L13.2323 43.6882C13.2323 43.7664 13.2323 43.8446 13.2323 43.9358C13.2323 45.1349 13.0981 45.8778 12.8162 46.1645C12.5478 46.4513 12.1721 46.5816 11.6755 46.5816H11.0179C10.0248 46.5816 9.5283 46.0473 9.5283 44.9915V41.4855H8.53521C8.53521 41.5246 8.53521 41.5637 8.53521 41.6159C8.53521 44.1053 7.58238 45.8778 5.67672 46.9205L4.77757 45.8387C6.44167 45.0306 7.27372 43.5709 7.30056 41.4855ZM7.38108 37.1324C6.89795 36.207 6.37457 35.3989 5.7975 34.7081L6.81743 34.1738C7.56896 35.0861 8.11919 35.8681 8.48153 36.5067L7.38108 37.1324ZM11.1119 38.3575H7.04558V40.3516H11.1119V38.3575ZM9.5283 36.4155C10.159 35.8029 10.6824 35.034 11.085 34.0825L12.1855 34.5648C11.7963 35.5423 11.2595 36.4025 10.5751 37.1584L9.5283 36.4155Z" fill="#1F1E1D"/>
<path d="M16.869 42.3848C16.869 42.4239 16.869 42.5021 16.869 42.5934C16.869 43.8707 16.7751 45.0306 16.5738 46.0864L15.8088 45.8518C16.037 44.796 16.1712 43.6361 16.1846 42.3457L16.869 42.3848ZM21.6063 34.4735V35.5292H19.8886V36.5198H21.3648V37.5103H19.8886V38.5791H21.3648V39.5696H19.8886V40.6384H21.7271C21.6466 43.7794 21.5527 45.4998 21.4453 45.7996C21.3514 46.0994 21.1903 46.321 20.9622 46.4774C20.734 46.6468 20.0764 46.725 19.0028 46.725L18.6942 45.4477C19.0163 45.4868 19.3518 45.4998 19.6873 45.4998C20.1301 45.4998 20.3985 45.3825 20.479 45.1349C20.5596 44.8873 20.5864 43.8967 20.5864 42.1372C20.5864 41.9156 20.5864 41.7462 20.5864 41.6028H16.4262V34.4475L21.6063 34.4735ZM17.2448 45.8127C17.2851 45.2392 17.3119 44.6657 17.3253 44.0792C17.3253 43.8185 17.3253 43.5448 17.3253 43.2451C17.3253 42.9062 17.3253 42.5934 17.3253 42.3197L17.9426 42.2806C18.0097 43.1669 18.0366 43.9749 18.0366 44.7048C18.0366 45.1219 18.0232 45.4738 18.0097 45.7735L17.2448 45.8127ZM17.5669 36.5198H18.8284V35.5292H17.5669V36.5198ZM18.8284 38.566V37.4973H17.5669V38.566H18.8284ZM18.8284 40.6253V39.5566H17.5669V40.6253H18.8284ZM18.5331 45.0567C18.5331 44.0401 18.4526 43.0887 18.305 42.1893L18.9089 42.1242C19.1102 42.9323 19.231 43.8707 19.2444 44.9264L18.5331 45.0567ZM19.7678 44.4572C19.5665 43.2711 19.4054 42.4761 19.2712 42.0851L19.8617 41.9156C20.1167 42.6064 20.2912 43.3754 20.3985 44.2095L19.7678 44.4572ZM29.0277 39.2829V40.3777H28.2493V45.187C28.2493 45.8257 28.1419 46.2428 27.9138 46.4513C27.6991 46.6729 27.2696 46.7771 26.6255 46.7771H25.2566L24.9345 45.4868L26.5986 45.5389C26.9207 45.5389 27.0818 45.3956 27.0818 45.1088V40.3647H21.6466V39.2698L29.0277 39.2829ZM26.1289 34.0825C26.1155 34.265 26.0887 34.4605 26.0752 34.6821C26.0618 34.8515 26.035 35.034 26.0081 35.2164H28.7861V36.2852H25.8068L25.6592 36.624C26.1558 36.8456 26.6792 37.0802 27.2428 37.3279C27.8467 37.5885 28.4372 37.8362 29.0277 38.1099L28.3298 39.2698C27.8467 38.957 27.2025 38.5921 26.3973 38.175C25.5787 37.771 25.1493 37.5625 25.109 37.5625C24.5185 38.4487 23.6462 39.0092 22.4921 39.2438L21.8345 38.1881C23.2704 37.8883 24.183 37.2497 24.5856 36.2852H22.0626V35.2164H24.8272C24.9077 34.9427 24.9345 34.5648 24.9345 34.0825H26.1289ZM26.1558 41.0815V45.0046H22.4652V41.0815H26.1558ZM25.0285 42.1111H23.5791V43.9619H25.0285V42.1111Z" fill="#1F1E1D"/>
<path d="M33.7786 42.1112C33.5773 43.6491 33.2686 44.9655 32.8526 46.0603L31.6313 45.6432C32.0071 44.7961 32.3426 43.5318 32.6244 41.8375L33.7786 42.1112ZM31.6448 36.6241V35.4771H34.5033C34.3422 35.021 34.1543 34.643 33.9396 34.3172L35.2414 34.0956C35.4963 34.4736 35.7245 34.9297 35.9258 35.4771H38.4219V36.6241H31.6448ZM32.1547 41.1858V37.5495H37.8986V41.1858H35.8721V45.3044C35.8721 46.2819 35.4427 46.7641 34.5972 46.7641H33.4967L33.1881 45.539L34.1275 45.565C34.4093 45.565 34.5435 45.4347 34.5435 45.174V41.1858H32.1547ZM36.5834 38.6312H33.4565V40.1301H36.5834V38.6312ZM37.0799 44.6918C36.8518 43.4797 36.6505 42.6064 36.476 42.059L37.5362 41.7723C37.7107 42.2545 37.9522 43.1017 38.2475 44.3008L37.0799 44.6918ZM40.1934 38.6312H38.3951V37.4191H40.2068V34.0956H41.4817V37.4191H44.7428V38.6312H41.4549C41.4415 40.3256 41.1194 41.9157 40.4618 43.4145C39.8042 44.9134 39.0258 46.0864 38.1267 46.9205L37.1068 45.8518C37.8717 45.2653 38.583 44.3008 39.2271 42.9323C39.8579 41.5768 40.18 40.1431 40.1934 38.6312ZM41.4012 40.1822H42.6627V44.8873C42.6627 45.2783 42.7969 45.4738 43.0787 45.4738C43.3605 45.4738 43.4947 45.2522 43.4947 44.8091C43.4947 44.366 43.4813 43.7013 43.4545 42.828L44.7428 43.3363V45.2913C44.7428 46.2428 44.1792 46.725 43.0653 46.725C41.9514 46.725 41.4012 46.2558 41.4012 45.3304V40.1822ZM43.3203 37.1324C42.7432 36.3373 42.2467 35.7508 41.8441 35.3859L42.8103 34.7733C43.4679 35.412 43.951 35.9594 44.2865 36.3764L43.3203 37.1324Z" fill="#1F1E1D"/>
<path d="M48.4735 42.3848C48.4735 42.4239 48.4735 42.5021 48.4735 42.5934C48.4735 43.8707 48.3796 45.0306 48.1783 46.0864L47.3999 45.8518C47.628 44.796 47.7622 43.6361 47.7757 42.3457L48.4735 42.3848ZM53.2242 34.4735V35.5292H51.5065V36.5198H52.9827V37.5103H51.5065V38.5791H52.9827V39.5696H51.5065V40.6384H53.345C53.2645 43.7794 53.1706 45.4998 53.0632 45.7996C52.9693 46.0994 52.8082 46.321 52.5801 46.4774C52.3519 46.6468 51.6944 46.725 50.6207 46.725L50.3121 45.4477C50.6342 45.4868 50.9697 45.4998 51.3052 45.4998C51.748 45.4998 52.0164 45.3825 52.097 45.1349C52.1775 44.8873 52.2043 43.8967 52.2043 42.1372C52.2043 41.9156 52.2043 41.7462 52.2043 41.6028H48.0441V34.4475L53.2242 34.4735ZM48.8493 45.8127C48.8895 45.2392 48.9164 44.6657 48.9298 44.0792C48.9298 43.8185 48.9298 43.5448 48.9298 43.2451C48.9298 42.9062 48.9298 42.5934 48.9298 42.3197L49.5471 42.2806C49.6142 43.1669 49.6411 43.9749 49.6411 44.7048C49.6411 45.1219 49.6276 45.4738 49.6142 45.7735L48.8493 45.8127ZM49.1848 36.5198H50.4463V35.5292H49.1848V36.5198ZM50.4463 38.566V37.4973H49.1848V38.566H50.4463ZM50.4463 40.6253V39.5566H49.1848V40.6253H50.4463ZM50.151 45.0567C50.151 44.0401 50.0705 43.0887 49.9229 42.1893L50.5268 42.1242C50.7281 42.9323 50.8489 43.8707 50.8623 44.9264L50.151 45.0567ZM51.3857 44.4572C51.1844 43.2711 51.0233 42.4761 50.8891 42.0851L51.4796 41.9156C51.7346 42.6064 51.9091 43.3754 52.0164 44.2095L51.3857 44.4572ZM60.6456 39.2829V40.3777H59.8672V45.187C59.8672 45.8257 59.7599 46.2428 59.5317 46.4513C59.317 46.6729 58.8876 46.7771 58.2434 46.7771H56.8745L56.5524 45.4868L58.2165 45.5389C58.5386 45.5389 58.6997 45.3956 58.6997 45.1088V40.3647H53.2645V39.2698L60.6456 39.2829ZM57.7334 34.0825C57.72 34.265 57.6932 34.4605 57.6797 34.6821C57.6663 34.8515 57.6395 35.034 57.6126 35.2164H60.3906V36.2852H57.4113L57.2503 36.624C57.7468 36.8456 58.2702 37.0802 58.8339 37.3279C59.4378 37.5885 60.0283 37.8362 60.6187 38.1099L59.9209 39.2698C59.4378 38.957 58.7936 38.5921 57.9884 38.175C57.1698 37.771 56.7403 37.5625 56.7001 37.5625C56.1096 38.4487 55.2373 39.0092 54.0831 39.2438L53.4121 38.1881C54.8481 37.8883 55.7607 37.2497 56.1633 36.2852H53.6403V35.2164H56.4048C56.4853 34.9427 56.5122 34.5648 56.5122 34.0825H57.7334ZM57.7603 41.0815V45.0046H54.0697V41.0815H57.7603ZM56.6464 42.1111H55.197V43.9619H56.6464V42.1111Z" fill="#1F1E1D"/>
<path d="M66.6846 36.5719H68.7379V46.5425H67.4629V45.6172H64.94V46.725H63.665V36.5719H65.1144C65.4633 36.0376 65.772 35.2816 66.0136 34.3041L67.3019 34.6821C67.1945 35.438 66.9932 36.0636 66.6846 36.5719ZM67.4495 37.7189H64.9265V40.3907H67.4495V37.7189ZM67.4495 41.5507H64.9265V44.4572H67.4495V41.5507ZM71.7977 36.2982H76.186C76.1592 40.7948 76.0787 43.5057 75.9445 44.4442C75.8237 45.3695 75.5956 45.9951 75.2601 46.321C74.9245 46.6468 74.1059 46.8162 72.8042 46.8162C72.5089 46.8162 72.2539 46.8163 72.0258 46.8032L71.5829 45.4217C72.1868 45.4868 72.7102 45.5129 73.1665 45.5129C73.7704 45.5129 74.173 45.3565 74.3475 45.0437C74.5219 44.7309 74.6293 44.0141 74.6964 42.8801C74.7635 41.7462 74.7903 40.2865 74.7903 38.4879C74.7903 38.0838 74.7903 37.758 74.7903 37.5104H71.4353C71.0864 38.6443 70.5496 39.7651 69.8249 40.873L68.711 39.8303C69.8383 38.3445 70.5093 36.4416 70.7375 34.0956L72.0661 34.278C72.0392 34.9819 71.9453 35.6466 71.7977 36.2982ZM72.4418 43.4797C71.8782 42.1112 71.2877 40.9512 70.6435 39.9997L71.8379 39.3872C72.4687 40.2474 73.1128 41.3813 73.7973 42.8019L72.4418 43.4797Z" fill="#1F1E1D"/>
<path d="M79.0044 37.3539V36.1288H81.2187C81.0443 35.4902 80.8295 34.9037 80.5746 34.3432L81.9166 34.1086C82.2521 34.7082 82.4936 35.3859 82.6413 36.1288H84.3724V37.3539H81.7958C81.7824 37.6277 81.7824 37.9274 81.7689 38.2663C81.7555 38.6052 81.7421 38.918 81.7018 39.2177H84.1443C84.1577 39.9346 84.1577 40.7036 84.1577 41.5377C84.1577 44.1574 84.0235 45.6693 83.7685 46.0473C83.5001 46.4253 82.9231 46.6208 82.0239 46.6208C81.8495 46.6208 81.7018 46.6208 81.5676 46.6208L81.2724 45.3304C81.6213 45.3565 81.9166 45.3695 82.1581 45.3695C82.1984 45.3695 82.2521 45.3695 82.2789 45.3695C82.601 45.3695 82.7889 45.1871 82.8291 44.8091C82.8694 44.4311 82.8962 43.8837 82.9097 43.1669C82.9365 42.437 82.9499 41.6029 82.9499 40.6905C82.9499 40.6123 82.9499 40.5472 82.9499 40.495H81.5811C81.3663 43.0235 80.8564 45.161 80.0377 46.8814L79.0044 45.9951C80.0109 43.61 80.5209 40.7296 80.5343 37.367L79.0044 37.3539ZM84.9629 38.8658L83.9027 37.9535C84.9227 36.976 85.7547 35.6987 86.4123 34.0956L87.647 34.4996C87.4859 34.9819 87.3249 35.3729 87.137 35.6596H92.0354V36.7935H86.5331C86.0902 37.4843 85.5668 38.1751 84.9629 38.8658ZM90.3578 36.976L91.1094 38.0838C90.4249 38.4618 89.66 38.7616 88.8279 38.9831C88.8279 39.3741 88.9756 40.0649 89.2708 41.0555C89.9955 40.7296 90.6397 40.2343 91.2301 39.5827L92.0756 40.5081C91.3643 41.264 90.5726 41.8244 89.6868 42.2024C89.6868 42.3718 89.9418 42.8541 90.4384 43.6622C90.9483 44.4833 91.5388 45.148 92.2098 45.6563L91.3375 46.9205C89.2574 45.174 88.0361 42.6325 87.6872 39.2959C87.553 39.335 87.3786 39.3741 87.1638 39.4132C86.9625 39.4523 86.7612 39.5045 86.5734 39.5436V44.8221C87.4188 44.5615 88.1301 44.2878 88.734 43.988V45.3044C87.7006 45.8257 86.3318 46.3079 84.6543 46.7511L84.2517 45.4477C84.7885 45.3174 85.1508 45.2262 85.2984 45.1871V38.6052C87.137 38.3315 88.8145 37.7971 90.3578 36.976Z" fill="#1F1E1D"/>
<path d="M98.0743 46.9205H96.7591V41.1597C96.531 41.4855 96.115 41.9156 95.5245 42.45L94.8132 41.1597C96.3029 39.8303 97.4167 38.566 98.1548 37.3539L99.1882 38.0838C98.7051 38.8137 98.3427 39.3871 98.0743 39.8303V46.9205ZM99.0406 34.7994C97.9401 36.0636 96.8263 37.1063 95.7124 37.9535L94.8803 36.7544C96.115 36.0115 97.1349 35.1252 97.9267 34.0825L99.0406 34.7994ZM105.898 39.6739V45.161C105.898 45.8518 105.777 46.2949 105.549 46.4904C105.308 46.6989 104.798 46.8032 104.019 46.8032L101.993 46.8162L101.671 45.4477L103.63 45.5389C103.711 45.5389 103.791 45.5389 103.872 45.5389C104.14 45.5389 104.301 45.5129 104.382 45.4607C104.462 45.3956 104.489 45.2001 104.489 44.8873V39.6608H99.4029V38.4096H108.019V39.6608H105.898V39.6739ZM100.154 36.0245V34.7863H107.294V36.0245H100.154Z" fill="#1F1E1D"/>
</svg>
