<svg width="54" height="54" viewBox="0 0 54 54" fill="none" xmlns="http://www.w3.org/2000/svg">
<path d="M53.75 26.6056C53.75 41.1579 41.7771 52.9612 27 52.9612C12.2229 52.9612 0.25 41.1579 0.25 26.6056C0.25 12.0533 12.2229 0.25 27 0.25C41.7771 0.25 53.75 12.0533 53.75 26.6056Z" fill="#1F1E1D" stroke="#1F1E1D" stroke-width="0.5"/>
<path d="M19.133 25.2225C17.4599 25.3631 15.8818 26.3112 14.9882 27.9043C13.5514 30.4675 14.4369 33.728 16.9628 35.1832C19.4888 36.6412 22.7019 35.7427 24.136 33.1795C25.0295 31.5865 25.0241 29.7233 24.2881 28.1937" stroke="#F6A21A" stroke-width="2" stroke-miterlimit="10"/>
<path d="M35.8667 25.2225C37.5398 25.3631 39.1178 26.3112 40.0114 27.9043C41.4482 30.4675 40.5628 33.728 38.0368 35.1832C35.5109 36.6412 32.2978 35.7427 30.8637 33.1795C29.9701 31.5892 29.9755 29.7261 30.7116 28.1964" stroke="#F6A21A" stroke-width="2" stroke-miterlimit="10"/>
<path d="M19.3364 30.947L22.2616 24.3929H29.5271" stroke="#F6A21A" stroke-width="2" stroke-miterlimit="10"/>
<path d="M27.6128 18.9689C28.0175 18.9689 30.538 18.9689 30.538 18.9689L34.6094 30.4978" stroke="#F6A21A" stroke-width="2" stroke-miterlimit="10"/>
</svg>
