<svg width="54" height="54" viewBox="0 0 54 54" fill="none" xmlns="http://www.w3.org/2000/svg">
<ellipse cx="27" cy="26.6056" rx="27" ry="26.6056" fill="#F6A21A"/>
<path d="M19.1332 25.2225C17.4601 25.3631 15.8821 26.3112 14.9885 27.9043C13.5517 30.4675 14.4371 33.728 16.9631 35.1832C19.489 36.6412 22.7021 35.7427 24.1362 33.1795C25.0298 31.5865 25.0244 29.7233 24.2883 28.1937" stroke="#1F1E1D" stroke-width="2" stroke-miterlimit="10"/>
<path d="M35.8669 25.2225C37.54 25.3631 39.1181 26.3112 40.0117 27.9043C41.4485 30.4675 40.563 33.728 38.0371 35.1832C35.5111 36.6412 32.298 35.7427 30.8639 33.1795C29.9704 31.5892 29.9758 29.7261 30.7118 28.1964" stroke="#1F1E1D" stroke-width="2" stroke-miterlimit="10"/>
<path d="M19.3369 30.947L22.2621 24.3929H29.5276" stroke="#1F1E1D" stroke-width="2" stroke-miterlimit="10"/>
<path d="M27.6128 18.9689C28.0175 18.9689 30.538 18.9689 30.538 18.9689L34.6094 30.4978" stroke="#1F1E1D" stroke-width="2" stroke-miterlimit="10"/>
</svg>
