<svg width="58" height="58" viewBox="0 0 58 58" fill="none" xmlns="http://www.w3.org/2000/svg">
<g filter="url(#filter0_d_92_2788)">
<ellipse cx="29" cy="27.3625" rx="27" ry="26.6056" fill="#1F1E1D"/>
</g>
<rect width="32" height="31.5325" transform="translate(13 11.5963)" fill="#1F1E1D"/>
<path d="M20.8869 25.5435C19.2645 25.6798 17.7343 26.5991 16.8678 28.1439C15.4745 30.6295 16.3331 33.7912 18.7825 35.2023C21.2319 36.6161 24.3476 35.7448 25.7383 33.2593C26.6048 31.7145 26.5995 29.9078 25.8858 28.4245" stroke="#F6A21A" stroke-width="2" stroke-miterlimit="10"/>
<path d="M37.1137 25.5435C38.7361 25.6798 40.2663 26.5991 41.1328 28.1439C42.5261 30.6295 41.6674 33.7912 39.218 35.2023C36.7686 36.6161 33.6529 35.7448 32.2623 33.2593C31.3958 31.7172 31.401 29.9105 32.1148 28.4272" stroke="#F6A21A" stroke-width="2" stroke-miterlimit="10"/>
<path d="M21.0845 31.0946L23.921 24.7391H30.9664" stroke="#F6A21A" stroke-width="2" stroke-miterlimit="10"/>
<path d="M29.1094 19.4794C29.5018 19.4794 31.9459 19.4794 31.9459 19.4794L35.8939 30.6589" stroke="#F6A21A" stroke-width="2" stroke-miterlimit="10"/>
<defs>
<filter id="filter0_d_92_2788" x="0" y="0.756958" width="58" height="57.2112" filterUnits="userSpaceOnUse" color-interpolation-filters="sRGB">
<feFlood flood-opacity="0" result="BackgroundImageFix"/>
<feColorMatrix in="SourceAlpha" type="matrix" values="0 0 0 0 0 0 0 0 0 0 0 0 0 0 0 0 0 0 127 0" result="hardAlpha"/>
<feOffset dy="2"/>
<feGaussianBlur stdDeviation="1"/>
<feComposite in2="hardAlpha" operator="out"/>
<feColorMatrix type="matrix" values="0 0 0 0 0 0 0 0 0 0 0 0 0 0 0 0 0 0 0.25 0"/>
<feBlend mode="normal" in2="BackgroundImageFix" result="effect1_dropShadow_92_2788"/>
<feBlend mode="normal" in="SourceGraphic" in2="effect1_dropShadow_92_2788" result="shape"/>
</filter>
</defs>
</svg>
